<svg xmlns="http://www.w3.org/2000/svg" xmlns:xlink="http://www.w3.org/1999/xlink" width="235" height="242" viewBox="0 0 235 242">
  <defs>
    <linearGradient id="notfoundsalesinvoice-b" x1="50%" x2="50%" y1="93.344%" y2="0%">
      <stop offset="0%" stop-color="#FFF"/>
      <stop offset="100%" stop-color="#B5E0F9"/>
    </linearGradient>
    <circle id="notfoundsalesinvoice-a" cx="113.5" cy="113.5" r="113.5"/>
    <circle id="notfoundsalesinvoice-d" cx="113.5" cy="113.5" r="113.5"/>
    <circle id="notfoundsalesinvoice-e" cx="113.5" cy="113.5" r="113.5"/>
    <filter id="notfoundsalesinvoice-g" width="100%" height="100%" x="0%" y="0%" filterUnits="objectBoundingBox">
      <feGaussianBlur in="SourceGraphic"/>
    </filter>
  </defs>
  <g fill="none" fill-rule="evenodd">
    <g transform="translate(8 15)">
      <mask id="notfoundsalesinvoice-c" fill="#fff">
        <use xlink:href="#notfoundsalesinvoice-a"/>
      </mask>
      <use fill="url(#notfoundsalesinvoice-b)" fill-rule="nonzero" xlink:href="#notfoundsalesinvoice-a"/>
      <g mask="url(#notfoundsalesinvoice-c)">
        <use fill="url(#notfoundsalesinvoice-b)" fill-rule="nonzero" xlink:href="#notfoundsalesinvoice-d"/>
        <mask id="notfoundsalesinvoice-f" fill="#fff">
          <use xlink:href="#notfoundsalesinvoice-e"/>
        </mask>
        <use fill-rule="nonzero" stroke="#EAF4F6" xlink:href="#notfoundsalesinvoice-e"/>
        <g mask="url(#notfoundsalesinvoice-f)">
          <g transform="translate(187 59)">
            <rect width="74" height="87" fill="#FCFCFC" rx="8"/>
            <g opacity=".299" transform="translate(14 62)">
              <rect width="47" height="5.87" fill="#F6F6F6" rx="2.935"/>
              <rect width="31.775" height="5.87" x="7.282" y="9.13" fill="#F6F6F6" rx="2.935"/>
            </g>
            <g opacity=".339" transform="translate(16 10)">
              <circle cx="17.5" cy="17.5" r="17.5" fill="#F6F6F6" fill-rule="nonzero"/>
              <g fill-rule="nonzero" transform="translate(13 7)">
                <polygon fill="#FFF" points="17 21 0 21 0 5.511 .636 5.511 .636 20.345 16.364 20.345 16.364 .655 5.347 .655 5.347 0 17 0"/>
                <g fill="#FFF" transform="matrix(-1 0 0 1 6 0)">
                  <polygon points="3.73 0 3.73 .693 4.945 .693 5.203 .972 5.203 2.289 5.842 2.289 5.842 0"/>
                  <rect width="1" height="1" x="2.049" y="2.789" transform="rotate(-135 2.55 3.29)"/>
                  <rect width="1" height="1" x="1.154" y="3.758" transform="rotate(-135 1.654 4.258)"/>
                  <rect width="1" height="1" x="2.947" y="1.818" transform="rotate(-135 3.447 2.318)"/>
                </g>
                <g fill="#FFF" transform="translate(2 9)">
                  <rect width="10.917" height="1" x=".039" y="2.28"/>
                  <rect width="10.917" height="1" x=".039" y=".014"/>
                  <rect width="10.917" height="1" x=".039" y="4.545"/>
                  <rect width="10.917" height="1" x=".039" y="6.84"/>
                  <rect width="6.104" height="1" x=".039" y="9.103"/>
                </g>
                <rect width="7" height="4" x="7" y="2" fill="#FFF"/>
                <rect width="1" height="1" x=".023" y=".027" fill="#F6F6F6" transform="translate(9 5)"/>
              </g>
            </g>
          </g>
        </g>
        <g mask="url(#notfoundsalesinvoice-f)">
          <g transform="translate(54 30)">
            <rect width="113" height="131" x=".5" y=".5" fill="#FFF" stroke="#A0D9F4" rx="8"/>
            <g transform="translate(22 94)">
              <rect width="71" height="9" fill="#F6F6F6" rx="3.5"/>
              <rect width="48" height="9" x="11" y="14" fill="#F6F6F6" rx="3.5"/>
            </g>
            <g transform="translate(20 8)">
              <circle cx="38.5" cy="38.5" r="38.5" fill="#F6F6F6" fill-rule="nonzero"/>
              <g fill-rule="nonzero" transform="translate(21 17)">
                <polygon fill="#FFF" points="35 43 0 43 0 11.284 1.309 11.284 1.309 41.658 33.691 41.658 33.691 1.342 11.009 1.342 11.009 0 35 0"/>
                <g fill="#FFF" transform="matrix(-1 0 0 1 10 0)">
                  <polygon points="5.459 0 5.459 1.386 7.89 1.386 8.406 1.944 8.406 4.578 9.685 4.578 9.685 0"/>
                  <rect width="1.266" height="1.371" x="2.503" y="6.375" transform="rotate(-135 3.136 7.06)"/>
                  <rect width="1.266" height="1.371" x=".713" y="8.312" transform="rotate(-135 1.346 8.997)"/>
                  <rect width="1.266" height="1.371" x="4.299" y="4.432" transform="rotate(-135 4.931 5.117)"/>
                </g>
                <g fill="#FFF" transform="translate(5 18)">
                  <rect width="21.834" height="1.319" x=".077" y="4.787"/>
                  <rect width="21.834" height="1.319" x=".077" y=".03"/>
                  <rect width="21.834" height="1.319" x=".077" y="9.545"/>
                  <rect width="21.834" height="1.319" x=".077" y="14.365"/>
                  <rect width="12.209" height="1.319" x=".077" y="19.116"/>
                </g>
                <rect width="15" height="8" x="15" y="5" fill="#FFF"/>
                <g fill="#F6F6F6" transform="translate(18 10)">
                  <rect width="1.492" height="1.169" x=".046" y=".054"/>
                  <rect width="1.492" height="1.169" x="4.007" y=".054"/>
                  <rect width="1.492" height="1.169" x="7.967" y=".054"/>
                </g>
              </g>
            </g>
          </g>
        </g>
        <g fill-rule="nonzero" mask="url(#notfoundsalesinvoice-f)">
          <g transform="translate(152 146)">
            <path fill="#47BF84" d="M0,12.9002662 C0,20.0169977 5.78869779,25.8005325 12.8976249,25.8005325 C16.1728092,25.8005325 19.1687142,24.5689126 21.4473792,22.5500717 L29.6670762,30.771452 C29.8194103,30.9238173 30.0161753,31 30.2192875,31 C30.4223997,31 30.6191646,30.9238173 30.7714988,30.771452 C31.0761671,30.4667213 31.0761671,29.9778824 30.7714988,29.6731518 L22.5454545,21.4517715 C24.5638821,19.1726398 25.7952498,16.1824698 25.7952498,12.9002662 C25.7952498,5.78353471 20.006552,0 12.8976249,0 C5.78869779,0 0,5.78353471 0,12.9002662 Z M24.240172,12.9002662 C24.240172,19.1535941 19.1496724,24.2451362 12.8976249,24.2451362 C6.6455774,24.2451362 1.55507781,19.1535941 1.55507781,12.9002662 C1.55507781,6.64693836 6.6455774,1.55539627 12.8976249,1.55539627 C19.1496724,1.55539627 24.240172,6.6405898 24.240172,12.9002662 Z"/>
            <circle cx="13.06" cy="13.06" r="11.5" fill="#8DECBD" filter="url(#notfoundsalesinvoice-g)"/>
          </g>
        </g>
        <ellipse cx="114" cy="193.5" fill="#C1CFDF" fill-rule="nonzero" mask="url(#notfoundsalesinvoice-f)" opacity=".378" rx="57" ry="5.5"/>
      </g>
      <path fill="#FFF" fill-rule="nonzero" d="M191.194241,23.9581082 C192.454202,23.9581082 193.641194,24.2522444 194.693327,24.7753624 C195.829508,23.6779067 197.389751,23 199.10854,23 C202.085762,23 204.581617,25.029954 205.248273,27.7638012 C206.737075,28.204064 207.930562,29.3120649 208.474966,30.7334093 C208.654906,30.7145786 208.836374,30.7059164 209.01937,30.7059164 C211.769662,30.7059164 214,32.9045939 214,35.6177273 C214,38.3289776 211.769662,40.5276551 209.01937,40.5276551 C208.162459,40.5276551 207.354449,40.3144911 206.651117,39.9393827 C206.047115,41.9798819 204.134632,43.4712767 201.867619,43.4712767 C200.485405,43.4712767 199.23232,42.9138868 198.329947,42.0141539 C197.426045,42.9138868 196.174488,43.4712767 194.788836,43.4712767 C193.474625,43.4712767 192.27579,42.9673661 191.385642,42.1448392 C190.474481,43.1270508 189.165619,43.7431927 187.708526,43.7431927 C186.345414,43.7431927 185.111813,43.2065165 184.212878,42.330887 C183.801041,42.4205213 183.37354,42.4683514 182.935343,42.4683514 C179.65631,42.4683514 177,39.8482419 177,36.6172631 C177,33.3847778 179.65631,30.7661748 182.935343,30.7661748 C183.113372,30.7661748 183.289492,30.7748369 183.465993,30.7902782 C183.886999,26.9484301 187.187426,23.9581082 191.194241,23.9581082 Z" mask="url(#notfoundsalesinvoice-c)" opacity=".753"/>
    </g>
    <path fill="#F4F8F9" fill-rule="nonzero" d="M145.099547 1.38567123C146.972462 1.38567123 148.73691 1.81106794 150.300891 2.56763136 151.989809.980427757 154.309089 0 156.864046 0 161.289647 0 164.999701 2.93583645 165.990676 6.88968372 168.20376 7.52641708 169.977862 9.12887178 170.787112 11.184502 171.05459 11.1572679 171.32434 11.1447402 171.596361 11.1447402 175.684633 11.1447402 179 14.3245942 179 18.248484 179 22.1696503 175.684633 25.3495043 171.596361 25.3495043 170.322574 25.3495043 169.121478 25.0412143 168.075984 24.4987109 167.178143 27.4497985 164.335264 29.6067395 160.965379 29.6067395 158.910737 29.6067395 157.048044 28.80061 155.706677 27.4993645 154.363039 28.80061 152.502617 29.6067395 150.442865 29.6067395 148.489308 29.6067395 146.707256 28.8779549 145.384062 27.6883692 144.029634 29.1089001 142.084028 30 139.918079 30 137.891832 30 136.058101 29.223828 134.721845 27.9574422 134.109655 28.0870765 133.474181 28.1562511 132.822807 28.1562511 127.948569 28.1562511 124 24.3668979 124 19.6940702 124 15.0190639 127.948569 11.2318893 132.822807 11.2318893 133.087445 11.2318893 133.349245 11.244417 133.611612 11.266749 134.237431 5.710447 139.143471 1.38567123 145.099547 1.38567123zM17.7913911 86.2009151C19.370656 86.2009151 20.8584595 86.5695922 22.1772271 87.2252805 23.6013429 85.8497041 25.5569881 85 27.7113582 85 31.4430779 85 34.5714398 87.5443916 35.4070423 90.9710592 37.2731416 91.5228948 38.7690856 92.9116889 39.4514545 94.693235 39.6769953 94.6696322 39.9044516 94.6587748 40.1338233 94.6587748 43.5811029 94.6587748 46.3766603 97.4146483 46.3766603 100.815353 46.3766603 104.213697 43.5811029 106.96957 40.1338233 106.96957 39.0597508 106.96957 38.0469718 106.702386 37.1653991 106.232216 36.4083288 108.789825 34.011179 110.659174 31.1696515 110.659174 29.4371529 110.659174 27.8665074 109.960529 26.7354511 108.832783 25.6024793 109.960529 24.0337493 110.659174 22.296941 110.659174 20.6496786 110.659174 19.1470306 110.027561 18.0312976 108.996587 16.8892277 110.227713 15.2486693 111 13.422315 111 11.7137592 111 10.1675353 110.327318 9.04078872 109.229783 8.52458267 109.342133 7.98874355 109.402084 7.43949648 109.402084 3.32948114 109.402084 0 106.117978 0 102.068194 0 98.016522 3.32948114 94.7343041 7.43949648 94.7343041 7.66264307 94.7343041 7.88339538 94.7451614 8.10462654 94.7645158 8.63232512 89.9490541 12.7691564 86.2009151 17.7913911 86.2009151z"/>
  </g>
</svg>
